<svg xmlns="http://www.w3.org/2000/svg" width="381.27" height="96.00" viewBox="0 0 381.27 96.00" role="img" aria-label="PlateVault">
<g transform="translate(0 0) scale(1.5)">
<g transform="rotate(-9 32 32)"><path d="M20 10 H50 A5 5 0 0 1 54 14 V50 A5 5 0 0 1 50 54 H14 A5 5 0 0 1 10 50 V20 Z" fill="none" stroke="#f4efe6" stroke-width="3" stroke-linejoin="round"></path><path d="M22 24 L31 33 L42 25 L46 42 M31 33 L27 46" fill="none" stroke="#e0913f" stroke-width="1.7" stroke-linecap="round" stroke-linejoin="round"></path><g fill="#e0913f"><path d="M31 27.6 l1.7 4.3 4.3 1.7 -4.3 1.7 -1.7 4.3 -1.7 -4.3 -4.3 -1.7 4.3 -1.7 z"></path><circle cx="22" cy="24" r="2.2"></circle><circle cx="42" cy="25" r="1.9"></circle><circle cx="46" cy="42" r="1.9"></circle><circle cx="27" cy="46" r="1.8"></circle></g></g>
</g>
<g transform="translate(116 12.271999999999998)">
<path d="M3.7 55.1L3.7 15.9L19.82 15.9Q23.52 15.9 26.35 17.39Q29.18 18.87 30.77 21.56Q32.37 24.25 32.37 27.94L32.37 28.73Q32.37 32.37 30.72 35.08Q29.06 37.8 26.24 39.28Q23.41 40.77 19.82 40.77L11.09 40.77L11.09 55.1ZM11.09 34.05L19.1 34.05Q21.73 34.05 23.35 32.59Q24.98 31.14 24.98 28.62L24.98 28.06Q24.98 25.54 23.35 24.08Q21.73 22.62 19.1 22.62L11.09 22.62ZM36.62 55.1L36.62 15.9L43.68 15.9L43.68 55.1ZM59.02 55.89Q56.06 55.89 53.7 54.85Q51.35 53.82 49.98 51.83Q48.61 49.84 48.61 46.98Q48.61 44.13 49.98 42.2Q51.35 40.26 53.79 39.28Q56.22 38.3 59.36 38.3L66.98 38.3L66.98 36.74Q66.98 34.78 65.74 33.52Q64.51 32.26 61.82 32.26Q59.19 32.26 57.9 33.46Q56.62 34.66 56.22 36.57L49.73 34.38Q50.4 32.26 51.88 30.49Q53.37 28.73 55.86 27.64Q58.35 26.54 61.94 26.54Q67.42 26.54 70.62 29.29Q73.81 32.03 73.81 37.24L73.81 47.6Q73.81 49.28 75.38 49.28L77.62 49.28L77.62 55.1L72.91 55.1Q70.84 55.1 69.5 54.1Q68.15 53.09 68.15 51.41L68.15 51.35L67.09 51.35Q66.86 52.02 66.08 53.12Q65.3 54.21 63.62 55.05Q61.94 55.89 59.02 55.89ZM60.26 50.18Q63.22 50.18 65.1 48.52Q66.98 46.87 66.98 44.13L66.98 43.57L59.86 43.57Q57.9 43.57 56.78 44.41Q55.66 45.25 55.66 46.76Q55.66 48.27 56.84 49.22Q58.02 50.18 60.26 50.18ZM90.27 55.1Q87.53 55.1 85.82 53.4Q84.11 51.69 84.11 48.83L84.11 33.15L77.17 33.15L77.17 27.33L84.11 27.33L84.11 18.7L91.17 18.7L91.17 27.33L98.78 27.33L98.78 33.15L91.17 33.15L91.17 47.6Q91.17 49.28 92.74 49.28L98.11 49.28L98.11 55.1ZM115.7 55.89Q111.55 55.89 108.39 54.12Q105.22 52.36 103.46 49.14Q101.7 45.92 101.7 41.55L101.7 40.88Q101.7 36.51 103.43 33.29Q105.17 30.07 108.3 28.31Q111.44 26.54 115.58 26.54Q119.67 26.54 122.7 28.36Q125.72 30.18 127.4 33.4Q129.08 36.62 129.08 40.88L129.08 43.29L108.86 43.29Q108.98 46.14 110.99 47.94Q113.01 49.73 115.92 49.73Q118.89 49.73 120.29 48.44Q121.69 47.15 122.42 45.58L128.18 48.61Q127.4 50.06 125.92 51.77Q124.43 53.48 121.97 54.68Q119.5 55.89 115.7 55.89ZM108.92 38.02L121.91 38.02Q121.69 35.62 119.98 34.16Q118.27 32.7 115.53 32.7Q112.67 32.7 110.99 34.16Q109.31 35.62 108.92 38.02Z" fill="#f4efe6"></path>
<path d="M141.29 55.1L131.32 15.9L138.94 15.9L147.22 50.34L148.01 50.34L156.3 15.9L163.91 15.9L153.94 55.1ZM174.66 55.89Q171.7 55.89 169.34 54.85Q166.99 53.82 165.62 51.83Q164.25 49.84 164.25 46.98Q164.25 44.13 165.62 42.2Q166.99 40.26 169.43 39.28Q171.86 38.3 175 38.3L182.62 38.3L182.62 36.74Q182.62 34.78 181.38 33.52Q180.15 32.26 177.46 32.26Q174.83 32.26 173.54 33.46Q172.26 34.66 171.86 36.57L165.37 34.38Q166.04 32.26 167.52 30.49Q169.01 28.73 171.5 27.64Q173.99 26.54 177.58 26.54Q183.06 26.54 186.26 29.29Q189.45 32.03 189.45 37.24L189.45 47.6Q189.45 49.28 191.02 49.28L193.26 49.28L193.26 55.1L188.55 55.1Q186.48 55.1 185.14 54.1Q183.79 53.09 183.79 51.41L183.79 51.35L182.73 51.35Q182.5 52.02 181.72 53.12Q180.94 54.21 179.26 55.05Q177.58 55.89 174.66 55.89ZM175.9 50.18Q178.86 50.18 180.74 48.52Q182.62 46.87 182.62 44.13L182.62 43.57L175.5 43.57Q173.54 43.57 172.42 44.41Q171.3 45.25 171.3 46.76Q171.3 48.27 172.48 49.22Q173.66 50.18 175.9 50.18ZM207.09 55.55Q203.84 55.55 201.4 54.07Q198.97 52.58 197.62 49.95Q196.28 47.32 196.28 43.9L196.28 27.33L203.34 27.33L203.34 43.34Q203.34 46.48 204.88 48.05Q206.42 49.62 209.27 49.62Q212.52 49.62 214.31 47.46Q216.1 45.3 216.1 41.44L216.1 27.33L223.16 27.33L223.16 55.1L216.22 55.1L216.22 51.46L215.21 51.46Q214.54 52.86 212.69 54.21Q210.84 55.55 207.09 55.55ZM229.88 55.1L229.88 15.9L236.94 15.9L236.94 55.1ZM254.3 55.1Q251.55 55.1 249.84 53.4Q248.14 51.69 248.14 48.83L248.14 33.15L241.19 33.15L241.19 27.33L248.14 27.33L248.14 18.7L255.19 18.7L255.19 27.33L262.81 27.33L262.81 33.15L255.19 33.15L255.19 47.6Q255.19 49.28 256.76 49.28L262.14 49.28L262.14 55.1Z" fill="#e0913f"></path>
</g>
</svg>
